%
M48
M72
T01C0.0080
T02C0.0236
%
T01
X11826Y3206
X11326Y1106
X8426Y1106
X5226Y3106
X10926Y4706
X7526Y946
X11926Y4706
X5083Y2706
X6326Y2706
X4444Y2708
X7826Y4755
X3906Y5506
X8326Y5506
X3998Y2590
X8826Y5406
X6426Y5006
X9226Y5406
X4642Y4815
X4982Y4755
X5626Y3606
X6023Y2956
X5826Y2306
X6426Y2106
X6826Y1906
X7226Y1706
X8726Y1806
X9226Y2006
X9626Y2206
X10226Y2406
X10726Y2606
X12226Y2606
X2526Y1306
X3226Y1482
X7786Y1666
X7526Y1246
X10026Y4906
X5213Y5034
X3198Y4910
X3199Y4110
X2673Y4306
X2126Y4306
X4192Y5155
X7426Y4006
X5626Y4006
X2657Y3801
X2126Y2206
X3206Y3706
X4046Y3466
X4826Y3406
X4929Y3961
X1626Y1206
X4214Y4720
T02
X3776Y6006
X3276Y6006
X4276Y6006
X4776Y6006
X5276Y6006
X5776Y6006
X6276Y6006
X6776Y6006
X7276Y6006
X7776Y6006
X8276Y6006
X8776Y6006
X9276Y6006
X9776Y6006
X10276Y6006
X10776Y6006
X11276Y6006
X4776Y506
X5276Y506
X5776Y506
X6276Y506
X6776Y506
X7276Y506
X7776Y506
X8276Y506
X8776Y506
X9276Y506
X9776Y506
X10276Y506
X10776Y506
X11276Y506
X11776Y6006
X11776Y506
X3275Y505
X4276Y506
X3776Y506
M30
