G75*
%MOIN*%
%OFA0B0*%
%FSLAX24Y24*%
%IPPOS*%
%LPD*%
%AMOC8*
5,1,8,0,0,1.08239X$1,22.5*
%
%ADD10C,0.0000*%
%ADD11R,0.0276X0.0079*%
%ADD12R,0.0630X0.0460*%
%ADD13R,0.0396X0.0396*%
%ADD14C,0.0079*%
%ADD15C,0.0051*%
%ADD16C,0.0240*%
D10*
X001026Y001006D02*
X003026Y001006D01*
X003026Y000506D01*
X012626Y000506D01*
X012626Y006006D01*
X003026Y006006D01*
X003026Y005506D01*
X001026Y005506D01*
X001026Y001006D01*
D11*
X003608Y001386D03*
X003608Y001583D03*
X003608Y001779D03*
X003608Y001976D03*
X003608Y002173D03*
X003608Y002370D03*
X003608Y002567D03*
X003608Y002764D03*
X003608Y002961D03*
X003608Y003157D03*
X003608Y003354D03*
X003608Y003551D03*
X003608Y003748D03*
X003608Y003945D03*
X003608Y004142D03*
X003608Y004339D03*
X003608Y004535D03*
X003608Y004732D03*
X003608Y004929D03*
X003608Y005126D03*
X011443Y005126D03*
X011443Y004929D03*
X011443Y004732D03*
X011443Y004535D03*
X011443Y004339D03*
X011443Y004142D03*
X011443Y003945D03*
X011443Y003748D03*
X011443Y003551D03*
X011443Y003354D03*
X011443Y003157D03*
X011443Y002961D03*
X011443Y002764D03*
X011443Y002567D03*
X011443Y002370D03*
X011443Y002173D03*
X011443Y001976D03*
X011443Y001779D03*
X011443Y001583D03*
X011443Y001386D03*
D12*
X001526Y001606D03*
X001526Y002206D03*
X001526Y002806D03*
X001526Y003706D03*
X001526Y004306D03*
X001526Y004906D03*
D13*
X003276Y006006D03*
X003776Y006006D03*
X004276Y006006D03*
X004776Y006006D03*
X005276Y006006D03*
X005776Y006006D03*
X006276Y006006D03*
X006776Y006006D03*
X007276Y006006D03*
X007776Y006006D03*
X008276Y006006D03*
X008776Y006006D03*
X009276Y006006D03*
X009776Y006006D03*
X010276Y006006D03*
X010776Y006006D03*
X011276Y006006D03*
X011776Y006006D03*
X011776Y000506D03*
X011276Y000506D03*
X010776Y000506D03*
X010276Y000506D03*
X009776Y000506D03*
X009276Y000506D03*
X008776Y000506D03*
X008276Y000506D03*
X007776Y000506D03*
X007276Y000506D03*
X006776Y000506D03*
X006276Y000506D03*
X005776Y000506D03*
X005276Y000506D03*
X004776Y000506D03*
X004276Y000506D03*
X003776Y000506D03*
X003275Y000505D03*
D14*
X003226Y001106D02*
X007006Y001106D01*
X007166Y000946D01*
X007526Y000946D01*
X008426Y001106D02*
X011326Y001106D01*
X003608Y003354D02*
X002826Y003354D01*
X002826Y001606D01*
X003226Y001106D01*
X002826Y003354D02*
X002577Y003354D01*
X002426Y003506D01*
X002426Y005206D01*
X002526Y005306D01*
X002926Y005306D01*
X003226Y005506D01*
X003226Y005956D01*
X003276Y005956D02*
X003326Y005906D01*
D15*
X003326Y005806D01*
X003426Y005706D01*
X004126Y005706D01*
X004226Y005806D01*
X004226Y005956D01*
X004276Y006006D01*
X003276Y006006D02*
X003276Y005956D01*
X003226Y005956D02*
X003276Y006006D01*
X003526Y005506D02*
X003906Y005506D01*
X003526Y005506D02*
X002826Y005006D01*
X002826Y004606D01*
X002896Y004535D01*
X003608Y004535D01*
X003608Y004339D02*
X004558Y004339D01*
X004982Y004755D01*
X004642Y004815D02*
X004502Y004929D01*
X003608Y004929D01*
X003608Y004732D02*
X004199Y004732D01*
X004214Y004720D01*
X004192Y005034D02*
X004192Y005155D01*
X004192Y005034D02*
X005213Y005034D01*
X004886Y005366D02*
X004843Y005325D01*
X004766Y005326D01*
X004106Y005326D01*
X003906Y005126D01*
X003608Y005126D01*
X004886Y005366D02*
X005226Y005706D01*
X005226Y005956D01*
X005276Y006006D01*
X005745Y005961D02*
X005776Y006006D01*
X005745Y005961D02*
X005745Y005203D01*
X004695Y004142D01*
X003608Y004142D01*
X003608Y003945D02*
X004665Y003945D01*
X006226Y005506D01*
X006226Y005956D01*
X006276Y006006D01*
X006726Y005956D02*
X006776Y006006D01*
X006726Y005956D02*
X006726Y004006D01*
X004893Y002173D01*
X003608Y002173D01*
X003365Y002150D02*
X002971Y002150D01*
X002971Y002101D02*
X003365Y002101D01*
X003365Y002090D02*
X003380Y002075D01*
X003365Y002059D01*
X003365Y001893D01*
X003380Y001878D01*
X003365Y001863D01*
X003365Y001696D01*
X003380Y001681D01*
X003365Y001666D01*
X003365Y001499D01*
X003380Y001484D01*
X003365Y001469D01*
X003365Y001303D01*
X003417Y001251D01*
X003383Y001251D01*
X003267Y001367D01*
X003171Y001406D01*
X002971Y001657D01*
X002971Y003209D01*
X003365Y003209D01*
X003365Y003074D01*
X003380Y003059D01*
X003365Y003044D01*
X003365Y002877D01*
X003380Y002862D01*
X003365Y002847D01*
X003365Y002681D01*
X003380Y002665D01*
X003365Y002650D01*
X003365Y002484D01*
X003380Y002468D01*
X003365Y002453D01*
X003365Y002287D01*
X003380Y002272D01*
X003365Y002256D01*
X003365Y002090D01*
X003365Y002051D02*
X002971Y002051D01*
X002971Y002001D02*
X003365Y002001D01*
X003365Y001952D02*
X002971Y001952D01*
X002971Y001902D02*
X003365Y001902D01*
X003365Y001852D02*
X002971Y001852D01*
X002971Y001803D02*
X003365Y001803D01*
X003365Y001753D02*
X002971Y001753D01*
X002971Y001703D02*
X003365Y001703D01*
X003365Y001654D02*
X002973Y001654D01*
X003013Y001604D02*
X003365Y001604D01*
X003365Y001554D02*
X003053Y001554D01*
X003092Y001505D02*
X003365Y001505D01*
X003365Y001455D02*
X003132Y001455D01*
X003174Y001405D02*
X003365Y001405D01*
X003365Y001355D02*
X003278Y001355D01*
X003327Y001306D02*
X003365Y001306D01*
X003377Y001256D02*
X003411Y001256D01*
X003386Y001246D02*
X007526Y001246D01*
X007460Y001295D02*
X007694Y001295D01*
X007694Y001096D01*
X007619Y001171D01*
X007432Y001171D01*
X007352Y001091D01*
X007226Y001091D01*
X007066Y001251D01*
X003800Y001251D01*
X003804Y001255D01*
X007420Y001255D01*
X007460Y001295D01*
X007421Y001256D02*
X007694Y001256D01*
X007694Y001206D02*
X007110Y001206D01*
X007160Y001157D02*
X007417Y001157D01*
X007368Y001107D02*
X007209Y001107D01*
X007634Y001157D02*
X007694Y001157D01*
X007694Y001107D02*
X007683Y001107D01*
X007957Y001107D02*
X007994Y001107D01*
X007994Y001057D02*
X007957Y001057D01*
X007957Y001008D02*
X007994Y001008D01*
X007994Y000958D02*
X007957Y000958D01*
X007957Y000931D02*
X007957Y001295D01*
X007967Y001316D01*
X007957Y001347D01*
X007957Y001380D01*
X007940Y001397D01*
X007930Y001426D01*
X007913Y001479D01*
X007864Y001503D01*
X007804Y001534D01*
X007780Y001557D01*
X007757Y001557D01*
X007736Y001567D01*
X007705Y001557D01*
X007396Y001557D01*
X007451Y001612D01*
X007451Y001799D01*
X007319Y001931D01*
X007132Y001931D01*
X007051Y001850D01*
X007051Y001999D01*
X006919Y002131D01*
X006732Y002131D01*
X006651Y002050D01*
X006651Y002199D01*
X006519Y002331D01*
X006332Y002331D01*
X006200Y002199D01*
X006200Y002107D01*
X005946Y002107D01*
X006051Y002212D01*
X006051Y002346D01*
X006080Y002375D01*
X006081Y002375D01*
X006119Y002413D01*
X006157Y002451D01*
X006157Y002452D01*
X006157Y002452D01*
X006157Y002506D01*
X006157Y002556D01*
X006232Y002480D01*
X006419Y002480D01*
X006551Y002612D01*
X006551Y002746D01*
X007180Y003375D01*
X007257Y003451D01*
X007257Y003856D01*
X007332Y003780D01*
X007519Y003780D01*
X007613Y003875D01*
X008680Y003875D01*
X008757Y003951D01*
X009800Y004995D01*
X009800Y004812D01*
X009932Y004680D01*
X010119Y004680D01*
X010237Y004798D01*
X010700Y004798D01*
X010700Y004612D01*
X010832Y004480D01*
X011019Y004480D01*
X011113Y004575D01*
X011200Y004575D01*
X011200Y004452D01*
X011215Y004437D01*
X011200Y004422D01*
X011200Y004255D01*
X011215Y004240D01*
X011200Y004225D01*
X011200Y004059D01*
X011215Y004043D01*
X011200Y004028D01*
X011200Y003862D01*
X011215Y003846D01*
X011200Y003831D01*
X011200Y003665D01*
X011215Y003650D01*
X011200Y003634D01*
X011200Y003468D01*
X011215Y003453D01*
X011200Y003437D01*
X011200Y003271D01*
X011202Y003269D01*
X011188Y003245D01*
X011180Y003213D01*
X011180Y003157D01*
X011180Y003102D01*
X011188Y003070D01*
X011194Y003059D01*
X011188Y003048D01*
X011180Y003016D01*
X011180Y002961D01*
X011443Y002961D01*
X011443Y002961D01*
X011443Y002992D01*
X011443Y003157D01*
X011443Y003157D01*
X011443Y002961D01*
X011706Y002961D01*
X011706Y003006D01*
X011732Y002980D01*
X011919Y002980D01*
X012051Y003112D01*
X012051Y003299D01*
X011931Y003420D01*
X012200Y003420D01*
X012200Y002831D01*
X012186Y002831D01*
X012122Y002895D01*
X012013Y002895D01*
X011704Y002895D01*
X011706Y002905D01*
X011706Y002961D01*
X011443Y002961D01*
X011443Y002961D01*
X011443Y002961D01*
X011443Y003157D01*
X011180Y003157D01*
X011443Y003157D01*
X011443Y003157D01*
X011443Y003144D02*
X011443Y003144D01*
X011443Y003094D02*
X011443Y003094D01*
X011443Y003045D02*
X011443Y003045D01*
X011443Y002995D02*
X011443Y002995D01*
X011443Y002961D02*
X011498Y002906D01*
X012226Y002906D01*
X012526Y002706D01*
X012526Y000806D01*
X012226Y000606D01*
X011926Y000606D01*
X011826Y000506D01*
X011776Y000506D01*
X011576Y000906D02*
X011276Y000506D01*
X011576Y000906D02*
X011826Y000906D01*
X011826Y002406D01*
X011765Y002567D01*
X011443Y002567D01*
X011200Y002548D02*
X010969Y002548D01*
X010951Y002566D02*
X011016Y002501D01*
X011200Y002501D01*
X011200Y002650D01*
X011215Y002665D01*
X011200Y002681D01*
X011200Y002847D01*
X011202Y002849D01*
X011188Y002873D01*
X011180Y002905D01*
X011180Y002961D01*
X011443Y002961D01*
X011706Y002945D02*
X012200Y002945D01*
X012200Y002896D02*
X011704Y002896D01*
X011706Y002995D02*
X011717Y002995D01*
X011934Y002995D02*
X012200Y002995D01*
X012200Y003045D02*
X011983Y003045D01*
X012033Y003094D02*
X012200Y003094D01*
X012200Y003144D02*
X012051Y003144D01*
X012051Y003194D02*
X012200Y003194D01*
X012200Y003243D02*
X012051Y003243D01*
X012051Y003293D02*
X012200Y003293D01*
X012200Y003343D02*
X012008Y003343D01*
X011958Y003392D02*
X012200Y003392D01*
X012271Y003551D02*
X012426Y003706D01*
X012426Y005506D01*
X012326Y005606D01*
X011676Y005606D01*
X011276Y006006D01*
X011276Y005506D02*
X010776Y006006D01*
X010276Y006006D02*
X010876Y005406D01*
X012126Y005406D01*
X012226Y005306D01*
X012226Y004106D01*
X012065Y003945D01*
X011443Y003945D01*
X011200Y003939D02*
X008744Y003939D01*
X008695Y003889D02*
X011200Y003889D01*
X011208Y003840D02*
X007578Y003840D01*
X007529Y003790D02*
X011200Y003790D01*
X011200Y003740D02*
X007257Y003740D01*
X007257Y003691D02*
X011200Y003691D01*
X011206Y003641D02*
X007257Y003641D01*
X007257Y003591D02*
X011200Y003591D01*
X011200Y003541D02*
X007257Y003541D01*
X007257Y003492D02*
X011200Y003492D01*
X011204Y003442D02*
X007247Y003442D01*
X007198Y003392D02*
X011200Y003392D01*
X011200Y003343D02*
X007148Y003343D01*
X007098Y003293D02*
X011200Y003293D01*
X011188Y003243D02*
X007049Y003243D01*
X006999Y003194D02*
X011180Y003194D01*
X011180Y003144D02*
X006949Y003144D01*
X006900Y003094D02*
X011181Y003094D01*
X011187Y003045D02*
X006850Y003045D01*
X006800Y002995D02*
X011180Y002995D01*
X011180Y002945D02*
X006751Y002945D01*
X006701Y002896D02*
X011182Y002896D01*
X011200Y002846D02*
X006651Y002846D01*
X006602Y002796D02*
X010597Y002796D01*
X010632Y002831D02*
X010500Y002699D01*
X010500Y002512D01*
X010632Y002380D01*
X010766Y002380D01*
X010842Y002304D01*
X010513Y002304D01*
X010451Y002366D01*
X010451Y002499D01*
X010319Y002631D01*
X010132Y002631D01*
X010000Y002499D01*
X010000Y002312D01*
X010132Y002180D01*
X010266Y002180D01*
X010338Y002107D01*
X009909Y002107D01*
X009851Y002166D01*
X009851Y002299D01*
X009719Y002431D01*
X009532Y002431D01*
X009400Y002299D01*
X009400Y002150D01*
X009319Y002231D01*
X009132Y002231D01*
X009000Y002099D01*
X009000Y001912D01*
X009132Y001780D01*
X009266Y001780D01*
X009332Y001714D01*
X009003Y001714D01*
X008951Y001766D01*
X008951Y001899D01*
X008819Y002031D01*
X008632Y002031D01*
X008500Y001899D01*
X008500Y001712D01*
X008632Y001580D01*
X008766Y001580D01*
X008829Y001517D01*
X008233Y001517D01*
X008209Y001528D01*
X008181Y001517D01*
X008151Y001517D01*
X008132Y001498D01*
X008108Y001489D01*
X008096Y001461D01*
X008074Y001440D01*
X008074Y001414D01*
X008016Y001281D01*
X007994Y001260D01*
X007994Y001234D01*
X007984Y001209D01*
X007994Y001181D01*
X007994Y000931D01*
X007957Y000931D01*
X007957Y001157D02*
X007994Y001157D01*
X007985Y001206D02*
X007957Y001206D01*
X007957Y001256D02*
X007994Y001256D01*
X007962Y001306D02*
X008026Y001306D01*
X008049Y001355D02*
X007957Y001355D01*
X007937Y001405D02*
X008071Y001405D01*
X008089Y001455D02*
X007921Y001455D01*
X007913Y001479D02*
X007913Y001479D01*
X007913Y001479D01*
X007861Y001505D02*
X008139Y001505D01*
X008206Y001386D02*
X008126Y001206D01*
X008126Y000656D01*
X008276Y000506D01*
X007826Y000556D02*
X007776Y000506D01*
X007826Y000556D02*
X007826Y001326D01*
X007806Y001386D01*
X007726Y001426D01*
X007406Y001426D01*
X007366Y001386D01*
X003608Y001386D01*
X003386Y001246D02*
X003226Y001406D01*
X003226Y001482D01*
X003608Y001583D02*
X007102Y001583D01*
X007226Y001706D01*
X007451Y001703D02*
X008509Y001703D01*
X008500Y001753D02*
X007451Y001753D01*
X007448Y001803D02*
X008500Y001803D01*
X008500Y001852D02*
X007398Y001852D01*
X007348Y001902D02*
X008503Y001902D01*
X008552Y001952D02*
X007051Y001952D01*
X007049Y002001D02*
X008602Y002001D01*
X008849Y002001D02*
X009000Y002001D01*
X009000Y001952D02*
X008899Y001952D01*
X008948Y001902D02*
X009010Y001902D01*
X009060Y001852D02*
X008951Y001852D01*
X008951Y001803D02*
X009110Y001803D01*
X008964Y001753D02*
X009293Y001753D01*
X009452Y001779D02*
X009226Y002006D01*
X009000Y002051D02*
X006999Y002051D01*
X006950Y002101D02*
X009001Y002101D01*
X009051Y002150D02*
X006651Y002150D01*
X006651Y002101D02*
X006701Y002101D01*
X006651Y002051D02*
X006652Y002051D01*
X006426Y002106D02*
X006296Y001976D01*
X003608Y001976D01*
X003608Y001779D02*
X006699Y001779D01*
X006826Y001906D01*
X007051Y001902D02*
X007103Y001902D01*
X007053Y001852D02*
X007051Y001852D01*
X007451Y001654D02*
X008559Y001654D01*
X008608Y001604D02*
X007443Y001604D01*
X007628Y001486D02*
X007786Y001666D01*
X007783Y001554D02*
X008792Y001554D01*
X008949Y001583D02*
X008726Y001806D01*
X008949Y001583D02*
X011443Y001583D01*
X011443Y001779D02*
X009452Y001779D01*
X009855Y001976D02*
X009626Y002206D01*
X009400Y002200D02*
X009350Y002200D01*
X009400Y002250D02*
X006601Y002250D01*
X006650Y002200D02*
X009101Y002200D01*
X009400Y002299D02*
X006551Y002299D01*
X006300Y002299D02*
X006051Y002299D01*
X006051Y002250D02*
X006250Y002250D01*
X006201Y002200D02*
X006039Y002200D01*
X005989Y002150D02*
X006200Y002150D01*
X006054Y002349D02*
X009450Y002349D01*
X009500Y002399D02*
X006104Y002399D01*
X006154Y002448D02*
X010000Y002448D01*
X010000Y002399D02*
X009752Y002399D01*
X009801Y002349D02*
X010000Y002349D01*
X010013Y002299D02*
X009851Y002299D01*
X009851Y002250D02*
X010063Y002250D01*
X010112Y002200D02*
X009851Y002200D01*
X009867Y002150D02*
X010296Y002150D01*
X010458Y002173D02*
X010226Y002406D01*
X010451Y002399D02*
X010614Y002399D01*
X010564Y002448D02*
X010451Y002448D01*
X010451Y002498D02*
X010514Y002498D01*
X010500Y002548D02*
X010403Y002548D01*
X010353Y002598D02*
X010500Y002598D01*
X010500Y002647D02*
X006551Y002647D01*
X006551Y002697D02*
X010500Y002697D01*
X010547Y002747D02*
X006552Y002747D01*
X006326Y002706D02*
X007126Y003506D01*
X007126Y005856D01*
X007276Y006006D01*
X007776Y006006D02*
X007826Y005956D01*
X007826Y004755D01*
X008993Y004187D02*
X011200Y004187D01*
X011200Y004138D02*
X008943Y004138D01*
X008893Y004088D02*
X011200Y004088D01*
X011210Y004038D02*
X008844Y004038D01*
X008794Y003989D02*
X011200Y003989D01*
X011443Y004142D02*
X012061Y004142D01*
X012126Y004206D01*
X012126Y005206D01*
X012026Y005306D01*
X010476Y005306D01*
X009776Y006006D01*
X009276Y006006D02*
X009226Y005956D01*
X009226Y005406D01*
X008826Y005406D02*
X008826Y005956D01*
X008776Y006006D01*
X008326Y005956D02*
X008276Y006006D01*
X008326Y005956D02*
X008326Y005506D01*
X009638Y004833D02*
X009800Y004833D01*
X009800Y004883D02*
X009688Y004883D01*
X009738Y004933D02*
X009800Y004933D01*
X009800Y004982D02*
X009787Y004982D01*
X009746Y005126D02*
X008626Y004006D01*
X007426Y004006D01*
X007273Y003840D02*
X007257Y003840D01*
X007257Y003790D02*
X007323Y003790D01*
X006426Y004006D02*
X006426Y005006D01*
X006426Y004006D02*
X005626Y003206D01*
X005186Y003646D01*
X003866Y003646D01*
X003771Y003551D01*
X003608Y003551D01*
X003608Y003748D02*
X005383Y003748D01*
X005626Y003606D01*
X005626Y004006D02*
X004926Y004006D01*
X004929Y004010D01*
X004929Y003961D01*
X004766Y003466D02*
X004046Y003466D01*
X004766Y003466D02*
X004826Y003406D01*
X005226Y003106D02*
X005080Y002961D01*
X003608Y002961D01*
X003365Y002945D02*
X002971Y002945D01*
X002971Y002896D02*
X003365Y002896D01*
X003365Y002846D02*
X002971Y002846D01*
X002971Y002796D02*
X003365Y002796D01*
X003365Y002747D02*
X002971Y002747D01*
X002971Y002697D02*
X003365Y002697D01*
X003365Y002647D02*
X002971Y002647D01*
X002971Y002598D02*
X003365Y002598D01*
X003365Y002548D02*
X002971Y002548D01*
X002971Y002498D02*
X003365Y002498D01*
X003365Y002448D02*
X002971Y002448D01*
X002971Y002399D02*
X003365Y002399D01*
X003365Y002349D02*
X002971Y002349D01*
X002971Y002299D02*
X003365Y002299D01*
X003365Y002250D02*
X002971Y002250D01*
X002971Y002200D02*
X003365Y002200D01*
X003608Y002370D02*
X004522Y002369D01*
X005083Y002706D01*
X004444Y002708D02*
X003988Y002835D01*
X003608Y002764D01*
X003608Y002567D02*
X003939Y002561D01*
X003998Y002590D01*
X003365Y002995D02*
X002971Y002995D01*
X002971Y003045D02*
X003366Y003045D01*
X003365Y003094D02*
X002971Y003094D01*
X002971Y003144D02*
X003365Y003144D01*
X003365Y003194D02*
X002971Y003194D01*
X002626Y003006D02*
X002126Y003606D01*
X001626Y003606D01*
X001526Y003706D01*
X001946Y003475D02*
X002064Y003475D01*
X002494Y002958D01*
X002494Y001612D01*
X002490Y001564D01*
X002494Y001558D01*
X002494Y001551D01*
X002529Y001517D01*
X002600Y001431D01*
X001946Y001431D01*
X001946Y001880D01*
X001920Y001906D01*
X001946Y001932D01*
X001946Y002066D01*
X002032Y001980D01*
X002219Y001980D01*
X002351Y002112D01*
X002351Y002299D01*
X002219Y002431D01*
X002032Y002431D01*
X001946Y002345D01*
X001946Y002480D01*
X001934Y002492D01*
X001941Y002499D01*
X001958Y002527D01*
X001966Y002559D01*
X001966Y002780D01*
X001551Y002780D01*
X001551Y002831D01*
X001966Y002831D01*
X001966Y003052D01*
X001958Y003084D01*
X001941Y003113D01*
X001918Y003136D01*
X001889Y003153D01*
X001857Y003161D01*
X001551Y003161D01*
X001551Y002831D01*
X001500Y002831D01*
X001500Y003161D01*
X001451Y003161D01*
X001451Y003370D01*
X001884Y003370D01*
X001946Y003432D01*
X001946Y003475D01*
X001946Y003442D02*
X002091Y003442D01*
X002133Y003392D02*
X001907Y003392D01*
X002174Y003343D02*
X001451Y003343D01*
X001451Y003293D02*
X002215Y003293D01*
X002257Y003243D02*
X001451Y003243D01*
X001451Y003194D02*
X002298Y003194D01*
X002340Y003144D02*
X001904Y003144D01*
X001952Y003094D02*
X002381Y003094D01*
X002422Y003045D02*
X001966Y003045D01*
X001966Y002995D02*
X002464Y002995D01*
X002494Y002945D02*
X001966Y002945D01*
X001966Y002896D02*
X002494Y002896D01*
X002494Y002846D02*
X001966Y002846D01*
X001966Y002747D02*
X002494Y002747D01*
X002494Y002796D02*
X001551Y002796D01*
X001526Y002806D02*
X002426Y002806D01*
X002526Y002706D01*
X002526Y001306D01*
X002581Y001455D02*
X001946Y001455D01*
X001946Y001505D02*
X002539Y001505D01*
X002494Y001554D02*
X001946Y001554D01*
X001946Y001604D02*
X002494Y001604D01*
X002494Y001654D02*
X001946Y001654D01*
X001946Y001703D02*
X002494Y001703D01*
X002494Y001753D02*
X001946Y001753D01*
X001946Y001803D02*
X002494Y001803D01*
X002494Y001852D02*
X001946Y001852D01*
X001924Y001902D02*
X002494Y001902D01*
X002494Y001952D02*
X001946Y001952D01*
X001946Y002001D02*
X002011Y002001D01*
X001961Y002051D02*
X001946Y002051D01*
X002126Y002206D02*
X001526Y002206D01*
X001946Y002349D02*
X001950Y002349D01*
X001946Y002399D02*
X002000Y002399D01*
X001946Y002448D02*
X002494Y002448D01*
X002494Y002399D02*
X002252Y002399D01*
X002301Y002349D02*
X002494Y002349D01*
X002494Y002299D02*
X002351Y002299D01*
X002351Y002250D02*
X002494Y002250D01*
X002494Y002200D02*
X002351Y002200D01*
X002351Y002150D02*
X002494Y002150D01*
X002494Y002101D02*
X002339Y002101D01*
X002290Y002051D02*
X002494Y002051D01*
X002494Y002001D02*
X002240Y002001D01*
X002626Y001606D02*
X002626Y003006D01*
X002494Y002697D02*
X001966Y002697D01*
X001966Y002647D02*
X002494Y002647D01*
X002494Y002598D02*
X001966Y002598D01*
X001963Y002548D02*
X002494Y002548D01*
X002494Y002498D02*
X001941Y002498D01*
X001526Y002806D02*
X001226Y002806D01*
X001126Y002906D01*
X001126Y004806D01*
X001226Y004906D01*
X001526Y004906D01*
X001551Y004883D02*
X002281Y004883D01*
X002281Y004933D02*
X001966Y004933D01*
X001966Y004931D02*
X001966Y005080D01*
X002281Y005080D01*
X002281Y004470D01*
X002219Y004531D01*
X002032Y004531D01*
X001946Y004445D01*
X001946Y004580D01*
X001934Y004592D01*
X001941Y004599D01*
X001958Y004627D01*
X001966Y004659D01*
X001966Y004880D01*
X001551Y004880D01*
X001551Y004931D01*
X001966Y004931D01*
X001966Y004982D02*
X002281Y004982D01*
X002281Y005032D02*
X001966Y005032D01*
X001966Y004833D02*
X002281Y004833D01*
X002281Y004783D02*
X001966Y004783D01*
X001966Y004734D02*
X002281Y004734D01*
X002281Y004684D02*
X001966Y004684D01*
X001960Y004634D02*
X002281Y004634D01*
X002281Y004585D02*
X001941Y004585D01*
X001946Y004535D02*
X002281Y004535D01*
X002281Y004485D02*
X002265Y004485D01*
X002126Y004306D02*
X001526Y004306D01*
X001946Y004485D02*
X001986Y004485D01*
X002673Y004306D02*
X002826Y004106D01*
X003199Y004110D01*
X003071Y003841D02*
X002729Y003841D01*
X002657Y003801D01*
X003071Y003841D02*
X003206Y003706D01*
X001551Y003144D02*
X001500Y003144D01*
X001500Y003094D02*
X001551Y003094D01*
X001551Y003045D02*
X001500Y003045D01*
X001500Y002995D02*
X001551Y002995D01*
X001551Y002945D02*
X001500Y002945D01*
X001500Y002896D02*
X001551Y002896D01*
X001551Y002846D02*
X001500Y002846D01*
X001526Y001606D02*
X001626Y001506D01*
X001626Y001206D01*
X002626Y001606D02*
X003126Y001006D01*
X003626Y001006D01*
X003776Y000855D01*
X003776Y000506D01*
X005826Y002306D02*
X006026Y002506D01*
X006023Y002956D01*
X006157Y002548D02*
X006165Y002548D01*
X006157Y002498D02*
X006214Y002498D01*
X006437Y002498D02*
X010000Y002498D01*
X010049Y002548D02*
X006487Y002548D01*
X006536Y002598D02*
X010098Y002598D01*
X010468Y002349D02*
X010797Y002349D01*
X010961Y002370D02*
X010726Y002606D01*
X010951Y002598D02*
X011200Y002598D01*
X011200Y002647D02*
X010951Y002647D01*
X010951Y002697D02*
X011200Y002697D01*
X011200Y002747D02*
X010904Y002747D01*
X010951Y002699D02*
X010819Y002831D01*
X010632Y002831D01*
X010854Y002796D02*
X011200Y002796D01*
X011443Y002764D02*
X012068Y002764D01*
X012226Y002606D01*
X012200Y002846D02*
X012171Y002846D01*
X011826Y003206D02*
X011577Y003354D01*
X011443Y003354D01*
X011443Y003551D02*
X012271Y003551D01*
X012168Y003748D02*
X012326Y003906D01*
X012326Y005406D01*
X012226Y005506D01*
X011276Y005506D01*
X011443Y005126D02*
X009746Y005126D01*
X010026Y004906D02*
X010049Y004929D01*
X011443Y004929D01*
X011443Y004732D02*
X011417Y004706D01*
X010926Y004706D01*
X010700Y004684D02*
X010123Y004684D01*
X010173Y004734D02*
X010700Y004734D01*
X010700Y004783D02*
X010222Y004783D01*
X009928Y004684D02*
X009489Y004684D01*
X009440Y004634D02*
X010700Y004634D01*
X010728Y004585D02*
X009390Y004585D01*
X009340Y004535D02*
X010777Y004535D01*
X010827Y004485D02*
X009291Y004485D01*
X009241Y004436D02*
X011214Y004436D01*
X011200Y004485D02*
X011024Y004485D01*
X011074Y004535D02*
X011200Y004535D01*
X011200Y004386D02*
X009191Y004386D01*
X009142Y004336D02*
X011200Y004336D01*
X011200Y004287D02*
X009092Y004287D01*
X009042Y004237D02*
X011212Y004237D01*
X011443Y004535D02*
X011755Y004535D01*
X011926Y004706D01*
X012168Y003748D02*
X011443Y003748D01*
X009879Y004734D02*
X009539Y004734D01*
X009589Y004783D02*
X009829Y004783D01*
X010951Y002699D02*
X010951Y002566D01*
X010961Y002370D02*
X011443Y002370D01*
X011443Y002173D02*
X010458Y002173D01*
X009855Y001976D02*
X011443Y001976D01*
X011443Y001386D02*
X008206Y001386D01*
D16*
X007786Y001666D03*
X007226Y001706D03*
X006826Y001906D03*
X006426Y002106D03*
X005826Y002306D03*
X006326Y002706D03*
X006023Y002956D03*
X005226Y003106D03*
X004826Y003406D03*
X004046Y003466D03*
X003206Y003706D03*
X002657Y003801D03*
X003199Y004110D03*
X002673Y004306D03*
X002126Y004306D03*
X003198Y004910D03*
X004192Y005155D03*
X003906Y005506D03*
X005213Y005034D03*
X004982Y004755D03*
X004642Y004815D03*
X004214Y004720D03*
X005626Y004006D03*
X005626Y003606D03*
X004929Y003961D03*
X006426Y005006D03*
X007826Y004755D03*
X008826Y005406D03*
X009226Y005406D03*
X008326Y005506D03*
X010026Y004906D03*
X010926Y004706D03*
X011926Y004706D03*
X011826Y003206D03*
X012226Y002606D03*
X010726Y002606D03*
X010226Y002406D03*
X009626Y002206D03*
X009226Y002006D03*
X008726Y001806D03*
X007526Y001246D03*
X007526Y000946D03*
X008426Y001106D03*
X011326Y001106D03*
X007426Y004006D03*
X005083Y002706D03*
X004444Y002708D03*
X003998Y002590D03*
X002126Y002206D03*
X003226Y001482D03*
X002526Y001306D03*
X001626Y001206D03*
M02*
