G75*
%MOIN*%
%OFA0B0*%
%FSLAX24Y24*%
%IPPOS*%
%LPD*%
%AMOC8*
5,1,8,0,0,1.08239X$1,22.5*
%
%ADD10C,0.0000*%
%ADD11C,0.0040*%
%ADD12C,0.0030*%
%ADD13C,0.0051*%
%ADD14C,0.0080*%
%ADD15C,0.0100*%
%ADD16C,0.0060*%
D10*
X001026Y001006D02*
X003026Y001006D01*
X003026Y000506D01*
X012626Y000506D01*
X012626Y006006D01*
X003026Y006006D01*
X003026Y005506D01*
X001026Y005506D01*
X001026Y001006D01*
D11*
X004246Y003026D02*
X004593Y003373D01*
X004593Y003460D01*
X004506Y003546D01*
X004332Y003546D01*
X004246Y003460D01*
X004761Y003460D02*
X004761Y003373D01*
X004848Y003286D01*
X005108Y003286D01*
X005277Y003286D02*
X005450Y003286D01*
X005108Y003113D02*
X005108Y003460D01*
X005021Y003546D01*
X004848Y003546D01*
X004761Y003460D01*
X005277Y003546D02*
X005624Y003546D01*
X005793Y003460D02*
X005879Y003546D01*
X006053Y003546D01*
X006139Y003460D01*
X005793Y003113D01*
X005879Y003026D01*
X006053Y003026D01*
X006139Y003113D01*
X006139Y003460D01*
X006308Y003460D02*
X006395Y003546D01*
X006568Y003546D01*
X006655Y003460D01*
X006655Y003373D01*
X006568Y003286D01*
X006655Y003199D01*
X006655Y003113D01*
X006568Y003026D01*
X006395Y003026D01*
X006308Y003113D01*
X006482Y003286D02*
X006568Y003286D01*
X006824Y003460D02*
X006911Y003546D01*
X007084Y003546D01*
X007171Y003460D01*
X007171Y003373D01*
X006824Y003026D01*
X007171Y003026D01*
X007339Y003026D02*
X007686Y003546D01*
X007855Y003460D02*
X007942Y003546D01*
X008115Y003546D01*
X008202Y003460D01*
X008202Y003373D01*
X007855Y003026D01*
X008202Y003026D01*
X008371Y003113D02*
X008457Y003026D01*
X008631Y003026D01*
X008718Y003113D01*
X008718Y003460D01*
X008631Y003546D01*
X008457Y003546D01*
X008371Y003460D01*
X008371Y003373D01*
X008457Y003286D01*
X008718Y003286D01*
X008886Y003286D02*
X009060Y003286D01*
X009402Y003113D02*
X009749Y003460D01*
X009749Y003113D01*
X009662Y003026D01*
X009489Y003026D01*
X009402Y003113D01*
X009402Y003460D01*
X009489Y003546D01*
X009662Y003546D01*
X009749Y003460D01*
X009918Y003373D02*
X010091Y003546D01*
X010091Y003026D01*
X009918Y003026D02*
X010265Y003026D01*
X010433Y003113D02*
X010520Y003026D01*
X010693Y003026D01*
X010780Y003113D01*
X010780Y003199D01*
X010693Y003286D01*
X010433Y003286D01*
X010433Y003113D01*
X010433Y003286D02*
X010607Y003460D01*
X010780Y003546D01*
X009233Y003546D02*
X008886Y003546D01*
X008886Y003026D01*
X008497Y002573D02*
X008324Y002746D01*
X008150Y002573D01*
X008150Y002226D01*
X007979Y002226D02*
X007979Y002313D01*
X007893Y002313D01*
X007893Y002226D01*
X007979Y002226D01*
X008150Y002486D02*
X008497Y002486D01*
X008497Y002573D02*
X008497Y002226D01*
X007724Y002573D02*
X007550Y002226D01*
X007377Y002573D01*
X007208Y002486D02*
X007208Y002399D01*
X006861Y002399D01*
X006861Y002313D02*
X006861Y002486D01*
X006948Y002573D01*
X007121Y002573D01*
X007208Y002486D01*
X006948Y002226D02*
X006861Y002313D01*
X006948Y002226D02*
X007121Y002226D01*
X006693Y002226D02*
X006519Y002399D01*
X006606Y002399D02*
X006346Y002399D01*
X006346Y002226D02*
X006346Y002746D01*
X006606Y002746D01*
X006693Y002660D01*
X006693Y002486D01*
X006606Y002399D01*
X005277Y003026D02*
X005277Y003546D01*
X005793Y003460D02*
X005793Y003113D01*
X005108Y003113D02*
X005021Y003026D01*
X004848Y003026D01*
X004761Y003113D01*
X004593Y003026D02*
X004246Y003026D01*
D12*
X003111Y002968D02*
X003111Y002721D01*
X003111Y002844D02*
X002740Y002844D01*
X002864Y002721D01*
X002740Y003089D02*
X002864Y003213D01*
X002740Y003336D01*
X003111Y003336D01*
X003111Y003457D02*
X003111Y003643D01*
X003049Y003704D01*
X002987Y003704D01*
X002925Y003643D01*
X002925Y003457D01*
X002740Y003457D02*
X003111Y003457D01*
X002925Y003643D02*
X002864Y003704D01*
X002802Y003704D01*
X002740Y003643D01*
X002740Y003457D01*
X002511Y003606D02*
X002140Y003606D01*
X002325Y003421D01*
X002325Y003668D01*
X002140Y003789D02*
X002264Y003913D01*
X002140Y004036D01*
X002511Y004036D01*
X002511Y004157D02*
X002511Y004343D01*
X002449Y004404D01*
X002387Y004404D01*
X002325Y004343D01*
X002325Y004157D01*
X002140Y004157D02*
X002140Y004343D01*
X002202Y004404D01*
X002264Y004404D01*
X002325Y004343D01*
X002140Y004157D02*
X002511Y004157D01*
X002511Y003789D02*
X002140Y003789D01*
X002740Y003089D02*
X003111Y003089D01*
X002449Y002304D02*
X002511Y002243D01*
X002511Y002057D01*
X002140Y002057D01*
X002140Y002243D01*
X002202Y002304D01*
X002264Y002304D01*
X002325Y002243D01*
X002325Y002057D01*
X002140Y001936D02*
X002511Y001936D01*
X002264Y001813D02*
X002140Y001936D01*
X002264Y001813D02*
X002140Y001689D01*
X002511Y001689D01*
X002511Y001568D02*
X002511Y001321D01*
X002264Y001568D01*
X002202Y001568D01*
X002140Y001506D01*
X002140Y001383D01*
X002202Y001321D01*
X002325Y002243D02*
X002387Y002304D01*
X002449Y002304D01*
D13*
X002126Y002406D02*
X002026Y002506D01*
X002126Y002606D01*
X002026Y002506D02*
X002926Y002506D01*
X002926Y002606D01*
X002926Y003906D02*
X002926Y004606D01*
X002826Y004706D01*
X002126Y004706D01*
X002226Y004806D01*
X002126Y004706D02*
X002226Y004606D01*
D14*
X003904Y005224D02*
X003904Y001287D01*
X011148Y001287D01*
X011148Y005224D01*
X003904Y005224D01*
D15*
X004177Y004650D02*
X004179Y004681D01*
X004185Y004712D01*
X004195Y004742D01*
X004208Y004770D01*
X004225Y004797D01*
X004245Y004821D01*
X004268Y004843D01*
X004293Y004861D01*
X004321Y004876D01*
X004350Y004888D01*
X004380Y004896D01*
X004411Y004900D01*
X004443Y004900D01*
X004474Y004896D01*
X004504Y004888D01*
X004533Y004876D01*
X004561Y004861D01*
X004586Y004843D01*
X004609Y004821D01*
X004629Y004797D01*
X004646Y004770D01*
X004659Y004742D01*
X004669Y004712D01*
X004675Y004681D01*
X004677Y004650D01*
X004675Y004619D01*
X004669Y004588D01*
X004659Y004558D01*
X004646Y004530D01*
X004629Y004503D01*
X004609Y004479D01*
X004586Y004457D01*
X004561Y004439D01*
X004533Y004424D01*
X004504Y004412D01*
X004474Y004404D01*
X004443Y004400D01*
X004411Y004400D01*
X004380Y004404D01*
X004350Y004412D01*
X004321Y004424D01*
X004293Y004439D01*
X004268Y004457D01*
X004245Y004479D01*
X004225Y004503D01*
X004208Y004530D01*
X004195Y004558D01*
X004185Y004588D01*
X004179Y004619D01*
X004177Y004650D01*
D16*
X001926Y005156D02*
X001926Y003456D01*
X001924Y003439D01*
X001920Y003422D01*
X001913Y003406D01*
X001903Y003392D01*
X001890Y003379D01*
X001876Y003369D01*
X001860Y003362D01*
X001843Y003358D01*
X001826Y003356D01*
X001226Y003356D01*
X001209Y003358D01*
X001192Y003362D01*
X001176Y003369D01*
X001162Y003379D01*
X001149Y003392D01*
X001139Y003406D01*
X001132Y003422D01*
X001128Y003439D01*
X001126Y003456D01*
X001126Y005156D01*
X001128Y005173D01*
X001132Y005190D01*
X001139Y005206D01*
X001149Y005220D01*
X001162Y005233D01*
X001176Y005243D01*
X001192Y005250D01*
X001209Y005254D01*
X001226Y005256D01*
X001826Y005256D01*
X001843Y005254D01*
X001860Y005250D01*
X001876Y005243D01*
X001890Y005233D01*
X001903Y005220D01*
X001913Y005206D01*
X001920Y005190D01*
X001924Y005173D01*
X001926Y005156D01*
X001826Y003156D02*
X001226Y003156D01*
X001209Y003154D01*
X001192Y003150D01*
X001176Y003143D01*
X001162Y003133D01*
X001149Y003120D01*
X001139Y003106D01*
X001132Y003090D01*
X001128Y003073D01*
X001126Y003056D01*
X001126Y001356D01*
X001128Y001339D01*
X001132Y001322D01*
X001139Y001306D01*
X001149Y001292D01*
X001162Y001279D01*
X001176Y001269D01*
X001192Y001262D01*
X001209Y001258D01*
X001226Y001256D01*
X001826Y001256D01*
X001843Y001258D01*
X001860Y001262D01*
X001876Y001269D01*
X001890Y001279D01*
X001903Y001292D01*
X001913Y001306D01*
X001920Y001322D01*
X001924Y001339D01*
X001926Y001356D01*
X001926Y003056D01*
X001924Y003073D01*
X001920Y003090D01*
X001913Y003106D01*
X001903Y003120D01*
X001890Y003133D01*
X001876Y003143D01*
X001860Y003150D01*
X001843Y003154D01*
X001826Y003156D01*
M02*
